<?xml version="1.0" encoding="UTF-8" standalone="no"?>
<!-- Created with Inkscape (http://www.inkscape.org/) -->

<svg
   xmlns:dc="http://purl.org/dc/elements/1.1/"
   xmlns:cc="http://creativecommons.org/ns#"
   xmlns:rdf="http://www.w3.org/1999/02/22-rdf-syntax-ns#"
   xmlns:svg="http://www.w3.org/2000/svg"
   xmlns="http://www.w3.org/2000/svg"
   xmlns:sodipodi="http://sodipodi.sourceforge.net/DTD/sodipodi-0.dtd"
   xmlns:inkscape="http://www.inkscape.org/namespaces/inkscape"
   sodipodi:docname="logo.svg"
   id="svg8"
   version="1.1"
   viewBox="0 0 210 297"
   height="297mm"
   width="210mm"
   inkscape:version="0.92.4 5da689c313, 2019-01-14"
   inkscape:export-filename="/home/aphuse/git/beeadmin/src/assets/images/logo.png"
   inkscape:export-xdpi="6.3999991"
   inkscape:export-ydpi="6.3999991">
  <defs
     id="defs2">
    <inkscape:path-effect
       effect="bend_path"
       id="path-effect5456"
       is_visible="true"
       bendpath="M 138.5293,430.03125 H 629.34961"
       prop_scale="1"
       scale_y_rel="false"
       vertical="false" />
    <marker
       inkscape:stockid="DotL"
       orient="auto"
       refY="0.0"
       refX="0.0"
       id="DotL"
       style="overflow:visible"
       inkscape:isstock="true">
      <path
         id="path5172"
         d="M -2.5,-1.0 C -2.5,1.7600000 -4.7400000,4.0 -7.5,4.0 C -10.260000,4.0 -12.5,1.7600000 -12.5,-1.0 C -12.5,-3.7600000 -10.260000,-6.0 -7.5,-6.0 C -4.7400000,-6.0 -2.5,-3.7600000 -2.5,-1.0 z "
         style="fill-rule:evenodd;stroke:#000000;stroke-width:1pt;stroke-opacity:1;fill:#000000;fill-opacity:1"
         transform="scale(0.8) translate(7.4, 1)" />
    </marker>
    <clipPath
       clipPathUnits="userSpaceOnUse"
       id="clipPath17149">
      <path
         d="m -114.05682,88.663746 a 79.999999,79.999999 0 0 0 -75.05795,52.500154 h 21.79143 a 59.999999,59.999999 0 0 1 53.26652,-32.50034 59.999999,59.999999 0 0 1 53.309406,32.50034 h 21.708753 A 79.999999,79.999999 0 0 0 -114.05682,88.663746 Z m 75.057431,107.499894 h -21.791433 a 59.999999,59.999999 0 0 1 -53.265998,32.49983 59.999999,59.999999 0 0 1 -53.30941,-32.49983 h -21.70978 a 79.999999,79.999999 0 0 0 75.01919,52.50016 79.999999,79.999999 0 0 0 75.057431,-52.50016 z"
         style="opacity:0.528;fill-opacity:1;stroke-width:1"
         id="path17151"
         inkscape:connector-curvature="0" />
    </clipPath>
  </defs>
  <sodipodi:namedview
     id="base"
     pagecolor="#ffffff"
     bordercolor="#666666"
     borderopacity="1.0"
     inkscape:pageopacity="0.0"
     inkscape:pageshadow="2"
     inkscape:zoom="0.64854097"
     inkscape:cx="396.85039"
     inkscape:cy="561.25984"
     inkscape:document-units="mm"
     inkscape:current-layer="text846"
     showgrid="false"
     inkscape:window-width="1920"
     inkscape:window-height="957"
     inkscape:window-x="0"
     inkscape:window-y="31"
     inkscape:window-maximized="1"
     inkscape:snap-text-baseline="true"
     showguides="true"
     inkscape:guide-bbox="true">
    <sodipodi:guide
       position="114.63873,125.65385"
       orientation="1,0"
       id="guide867"
       inkscape:locked="false" />
    <sodipodi:guide
       position="78.329668,133.40522"
       orientation="0,1"
       id="guide869"
       inkscape:locked="false" />
    <sodipodi:guide
       position="73.842031,185.21704"
       orientation="0,1"
       id="guide871"
       inkscape:locked="false" />
  </sodipodi:namedview>
  <metadata
     id="metadata5">
    <rdf:RDF>
      <cc:Work
         rdf:about="">
        <dc:format>image/svg+xml</dc:format>
        <dc:type
           rdf:resource="http://purl.org/dc/dcmitype/StillImage" />
      </cc:Work>
    </rdf:RDF>
  </metadata>
  <g
     inkscape:label="Layer 1"
     inkscape:groupmode="layer"
     id="layer1">
    <g
       aria-label="B"
       style="font-style:normal;font-variant:normal;font-weight:normal;font-stretch:normal;font-size:67.73332977px;line-height:1.25;font-family:'Sonsie One';-inkscape-font-specification:'Sonsie One';letter-spacing:0px;word-spacing:0px;fill:#000000;fill-opacity:1;stroke:none;stroke-width:0.1798244"
       id="text817"
       transform="matrix(1.4713427,0,0,1.4713427,-42.827381,-70.565865)"
       mask="none" />
    <g
       id="g17813"
       transform="translate(390.01881,-18.155326)" />
    <text
       xml:space="preserve"
       style="font-style:normal;font-weight:normal;font-size:10.58333302px;line-height:1.25;font-family:'Sonsie One';letter-spacing:0px;word-spacing:0px;fill:#000000;fill-opacity:1;stroke:none;stroke-width:0.26458332;-inkscape-font-specification:'Sonsie One';font-stretch:normal;font-variant:normal;"
       x="-79.961533"
       y="165.22664"
       id="text18235"><tspan
         sodipodi:role="line"
         id="tspan18233"
         x="-79.961533"
         y="174.59041"
         style="stroke-width:0.26458332;-inkscape-font-specification:'Sonsie One';font-family:'Sonsie One';font-weight:normal;font-style:normal;font-stretch:normal;font-variant:normal;" /></text>
    <g
       aria-label="B"
       transform="matrix(0.67436791,0,0,0.64879544,-10.901823,40.014775)"
       style="font-style:normal;font-variant:normal;font-weight:normal;font-stretch:normal;font-size:100.7056427px;line-height:1.25;font-family:'Sonsie One';-inkscape-font-specification:'Sonsie One';letter-spacing:0px;word-spacing:0px;fill:#008080;fill-opacity:1;stroke:none;stroke-width:0.40000013"
       id="text18359" />
    <g
       aria-label="Bee
"
       style="font-style:normal;font-variant:normal;font-weight:normal;font-stretch:normal;font-size:35.27777863px;line-height:1.25;font-family:'Sonsie One';-inkscape-font-specification:'Sonsie One';letter-spacing:0px;word-spacing:0px;fill:#000000;fill-opacity:1;stroke:none;stroke-width:0.26458332"
       id="text840" />
    <g
       aria-label="admin"
       style="font-style:normal;font-weight:normal;font-size:35.27777863px;line-height:1.25;font-family:sans-serif;letter-spacing:0px;word-spacing:0px;fill:#008080;fill-opacity:1;stroke:none;stroke-width:0.56663185"
       id="text846"
       transform="matrix(0.46694042,0,0,0.46694042,-20.625969,92.619392)">
      <path
         id="path863"
         style="font-style:normal;font-variant:normal;font-weight:normal;font-stretch:normal;font-size:35.27777863px;font-family:'Sonsie One';-inkscape-font-specification:'Sonsie One';fill:#ffffff;stroke-width:0.56663185"
         d="m 244.56666,143.23146 h -18.66741 a 51.398401,51.398403 0 0 1 -45.62979,27.84065 51.398401,51.398403 0 0 1 -45.66698,-27.84065 h -18.59747 a 68.531202,68.531204 0 0 0 64.26445,44.97373 68.531202,68.531204 0 0 0 64.2972,-44.97373 z m -64.2972,-92.08873 a 68.531202,68.531204 0 0 0 -64.29765,44.973735 h 18.66741 a 51.398401,51.398403 0 0 1 45.63024,-27.841088 51.398401,51.398403 0 0 1 45.66697,27.841088 h 18.59659 A 68.531202,68.531204 0 0 0 180.26946,51.14273 Z m 6.10525,8.229595 c 1.18292,0.08992 2.09903,0.638462 2.05406,1.229921 -0.045,0.59145 -1.03346,0.99521 -2.21637,0.905288 -1.1829,-0.08992 -2.099,-0.638462 -2.05405,-1.229921 0.045,-0.591449 1.03346,-0.99521 2.21636,-0.905288 z m 6.0707,0.918267 c 1.16785,0.208497 2.02411,0.846446 1.91986,1.430375 -0.10425,0.583928 -1.12837,0.886168 -2.29623,0.677661 -1.16784,-0.208497 -2.02411,-0.846446 -1.91985,-1.430374 0.10425,-0.583928 1.12836,-0.886168 2.29622,-0.677662 z m 5.99445,1.549833 c 1.12376,0.38016 1.87542,1.13856 1.68535,1.700448 -0.19008,0.561878 -1.24781,0.708167 -2.37157,0.328007 -1.12377,-0.380168 -1.87542,-1.138569 -1.68534,-1.700447 0.19008,-0.56188 1.24779,-0.708176 2.37156,-0.328008 z m 5.75238,2.137445 c 1.08102,0.488645 1.7546,1.317171 1.51029,1.857676 -0.24433,0.540514 -1.3113,0.582266 -2.39231,0.09363 -1.08102,-0.488653 -1.75462,-1.317169 -1.51029,-1.857683 0.24432,-0.540506 1.3113,-0.582267 2.39231,-0.09362 z m 5.50364,2.710615 c 1.02848,0.591296 1.61843,1.481302 1.32279,1.995543 -0.29564,0.514232 -1.36164,0.452203 -2.39011,-0.139093 -1.02847,-0.591295 -1.61844,-1.481302 -1.32279,-1.995543 0.29565,-0.514232 1.36163,-0.452194 2.39011,0.139093 z m 5.20028,3.252611 c 0.96683,0.68748 1.46845,1.630109 1.12471,2.113528 -0.34373,0.483419 -1.39882,0.319133 -2.36564,-0.368346 -0.96683,-0.68748 -1.46845,-1.63011 -1.12472,-2.11352 0.34375,-0.483419 1.39881,-0.319141 2.36565,0.368338 z m 4.84576,3.759159 c 0.89671,0.776725 1.30594,1.762983 0.91759,2.211339 -0.38837,0.448357 -1.42292,0.183998 -2.31962,-0.592726 -0.89671,-0.776724 -1.30597,-1.762982 -0.91759,-2.211331 0.38835,-0.448356 1.42291,-0.184006 2.31962,0.592718 z m 4.44364,4.22606 c 0.81862,0.85864 1.13203,1.8794 0.70272,2.28872 -0.42931,0.4093 -1.43397,0.0476 -2.2526,-0.81105 -0.81862,-0.85865 -1.13203,-1.8794 -0.70272,-2.288719 0.42933,-0.409298 1.43399,-0.04756 2.2526,0.811049 z m 3.99778,4.65047 c 0.73299,0.9328 0.94761,1.97879 0.48121,2.34529 -0.46639,0.36649 -1.43197,-0.0894 -2.16496,-1.0222 -0.73299,-0.93279 -0.94762,-1.9788 -0.48122,-2.3453 0.46639,-0.36649 1.43197,0.0894 2.16497,1.02221 z m 3.51066,5.02909 c 0.64022,0.99875 0.75361,2.06051 0.25424,2.38061 -0.49937,0.32013 -1.41681,-0.22621 -2.05704,-1.22497 -0.64022,-0.99874 -0.75361,-2.06049 -0.25424,-2.3806 0.49937,-0.32012 1.41681,0.22622 2.05704,1.22496 z m 2.98585,5.35863 c 0.54073,1.05592 0.55103,2.12367 0.0231,2.39403 -0.52796,0.27037 -1.38832,-0.36203 -1.92907,-1.41797 -0.54074,-1.05593 -0.55103,-2.12366 -0.0231,-2.39403 0.52796,-0.27037 1.38832,0.36204 1.92907,1.41797 z m 3e-5,53.418785 c -0.54074,1.05592 -1.4011,1.68833 -1.92906,1.41796 -0.52797,-0.27037 -0.51769,-1.33811 0.0231,-2.39403 0.54074,-1.05592 1.40111,-1.68834 1.92908,-1.41797 0.52795,0.27037 0.51767,1.33811 -0.0231,2.39404 z m -2.98584,5.3586 c -0.64023,0.99875 -1.55767,1.54509 -2.05705,1.22497 -0.49936,-0.32011 -0.38597,-1.38186 0.25426,-2.38061 0.64022,-0.99875 1.55766,-1.54508 2.05704,-1.22497 0.49937,0.32011 0.38597,1.38187 -0.25425,2.38061 z m -3.51065,5.02912 c -0.733,0.9328 -1.69858,1.38869 -2.16497,1.02219 -0.46639,-0.36649 -0.25177,-1.41249 0.48122,-2.34528 0.733,-0.9328 1.69857,-1.3887 2.16497,-1.02221 0.4664,0.3665 0.25178,1.41251 -0.48122,2.3453 z m -3.99767,4.65061 c -0.81862,0.85862 -1.82328,1.22035 -2.25259,0.81104 -0.42932,-0.40931 -0.11592,-1.43007 0.70271,-2.28871 0.81863,-0.85862 1.82328,-1.22036 2.2526,-0.81104 0.42931,0.40931 0.11592,1.43007 -0.70272,2.28871 z m -4.44393,4.22606 c -0.8967,0.77672 -1.93126,1.04108 -2.31962,0.59272 -0.38835,-0.44835 0.0209,-1.43461 0.91759,-2.21133 0.8967,-0.77673 1.93126,-1.04108 2.31962,-0.59273 0.38836,0.44836 -0.0209,1.43462 -0.91759,2.21134 z m -4.84569,3.75908 c -0.96683,0.68748 -2.02191,0.85177 -2.36566,0.36835 -0.34373,-0.48341 0.1579,-1.42604 1.12473,-2.11353 0.96682,-0.68748 2.0219,-0.85175 2.36564,-0.36833 0.34374,0.4834 -0.15789,1.42604 -1.12471,2.11351 z m -5.20012,3.25277 c -1.02846,0.59129 -2.09446,0.65332 -2.3901,0.13907 -0.29564,-0.51424 0.29432,-1.40425 1.3228,-1.99554 1.02847,-0.59129 2.09444,-0.65332 2.3901,-0.13907 0.29564,0.51424 -0.29433,1.40425 -1.3228,1.99554 z m -5.50372,2.71051 c -1.08103,0.48865 -2.148,0.4469 -2.39232,-0.0936 -0.24433,-0.54051 0.42927,-1.36903 1.51029,-1.85767 1.08102,-0.48865 2.14799,-0.44688 2.39231,0.0936 0.24432,0.54051 -0.42927,1.36904 -1.51028,1.85768 z m -5.75245,2.13733 c -1.12376,0.38017 -2.18148,0.23388 -2.37156,-0.328 -0.19008,-0.5619 0.56158,-1.32028 1.68534,-1.70046 1.12376,-0.38016 2.18148,-0.23386 2.37156,0.32802 0.19008,0.56187 -0.56158,1.32028 -1.68534,1.70044 z m -5.99454,1.54993 c -1.16786,0.2085 -2.19197,-0.0937 -2.29622,-0.67766 -0.10425,-0.58393 0.75201,-1.22188 1.91985,-1.43038 1.16787,-0.20851 2.19198,0.0937 2.29624,0.67766 0.10424,0.58394 -0.75201,1.22187 -1.91987,1.43038 z m -6.07052,0.91825 c -1.1829,0.0899 -2.17141,-0.31384 -2.21638,-0.90529 -0.045,-0.59146 0.87116,-1.14 2.05407,-1.22992 1.18291,-0.09 2.17141,0.31384 2.21635,0.90529 0.045,0.59145 -0.87114,1.13999 -2.05404,1.22992 z m -6.0784,0.30531 c -1.18594,0.03 -2.15275,-0.42327 -2.16774,-1.01623 -0.015,-0.59298 0.92769,-1.09448 2.11363,-1.12445 1.18594,-0.03 2.15275,0.42325 2.16775,1.01622 0.015,0.59297 -0.92769,1.09449 -2.11364,1.12446 z m -6.1326,-0.30526 c -1.18291,-0.0899 -2.09902,-0.63845 -2.05405,-1.22992 0.045,-0.59145 1.03345,-0.99521 2.21636,-0.90529 1.18291,0.0899 2.09902,0.63847 2.05406,1.22992 -0.045,0.59145 -1.03347,0.99522 -2.21637,0.90529 z m -6.07069,-0.91827 c -1.16785,-0.2085 -2.02411,-0.84645 -1.91985,-1.43038 0.10425,-0.58393 1.12836,-0.88616 2.29622,-0.67766 1.16785,0.20852 2.0241,0.84645 1.91986,1.43038 -0.10426,0.58393 -1.12838,0.88617 -2.29623,0.67766 z m -5.99445,-1.54983 c -1.12377,-0.38016 -1.87543,-1.13856 -1.68535,-1.70045 0.19008,-0.56187 1.2478,-0.70816 2.37156,-0.328 1.12377,0.38017 1.87543,1.13857 1.68535,1.70044 -0.19008,0.56188 -1.2478,0.70818 -2.37156,0.32801 z m -5.75238,-2.13745 c -1.08102,-0.48864 -1.7546,-1.31717 -1.51029,-1.85768 0.24433,-0.5405 1.3113,-0.58227 2.39232,-0.0936 1.08101,0.48865 1.75461,1.31717 1.51028,1.85768 -0.24432,0.54051 -1.3113,0.58227 -2.39231,0.0936 z m -5.50363,-2.71061 c -1.02848,-0.59128 -1.61844,-1.4813 -1.32279,-1.99553 0.29565,-0.51424 1.36163,-0.45221 2.3901,0.13909 1.02847,0.59128 1.61844,1.4813 1.3228,1.99554 -0.29566,0.51423 -1.36164,0.4522 -2.39011,-0.1391 z m -5.20028,-3.2526 c -0.96683,-0.68748 -1.46846,-1.63012 -1.12472,-2.11354 0.34374,-0.48341 1.39882,-0.31912 2.36565,0.36836 0.96683,0.68747 1.46844,1.63011 1.12471,2.11351 -0.34374,0.48343 -1.39882,0.31914 -2.36564,-0.36833 z m -4.84576,-3.75917 c -0.89671,-0.77672 -1.30596,-1.76297 -0.91759,-2.21133 0.38836,-0.44835 1.42292,-0.184 2.31961,0.59273 0.89672,0.77672 1.30597,1.76298 0.9176,2.21133 -0.38836,0.44835 -1.42292,0.184 -2.31962,-0.59273 z m -4.44366,-4.22605 c -0.81862,-0.85864 -1.13203,-1.8794 -0.70271,-2.28871 0.42931,-0.40931 1.43397,-0.0476 2.25258,0.81104 0.81863,0.85864 1.13204,1.8794 0.70273,2.28872 -0.42931,0.4093 -1.43398,0.0476 -2.2526,-0.81105 z m -3.99776,-4.65048 c -0.73299,-0.9328 -0.94762,-1.97879 -0.48123,-2.34529 0.46641,-0.3665 1.43198,0.0894 2.16497,1.02219 0.73299,0.93279 0.94763,1.97881 0.48123,2.34531 -0.4664,0.36649 -1.43197,-0.0894 -2.16497,-1.02221 z m -3.51066,-5.02908 c -0.64023,-0.99875 -0.75362,-2.06051 -0.25425,-2.38062 0.49937,-0.32011 1.41681,0.22622 2.05704,1.22498 0.64022,0.99873 0.75361,2.06049 0.25424,2.38061 -0.49937,0.3201 -1.4168,-0.22624 -2.05703,-1.22497 z m -2.98585,-5.35864 c -0.54074,-1.05593 -0.55103,-2.12367 -0.0231,-2.39404 0.52796,-0.27036 1.38833,0.36204 1.92907,1.41798 0.54074,1.05592 0.55102,2.12367 0.023,2.39404 -0.52796,0.27037 -1.38833,-0.36205 -1.92907,-1.41798 z m -4e-5,-53.418755 c 0.54073,-1.05594 1.4011,-1.68835 1.92906,-1.41798 0.52796,0.27037 0.51768,1.33811 -0.023,2.39404 -0.54074,1.05593 -1.40111,1.68833 -1.92906,1.41796 -0.52797,-0.27036 -0.51768,-1.33811 0.023,-2.39402 z m 2.98583,-5.35863 c 0.64022,-0.99875 1.55766,-1.54508 2.05703,-1.22497 0.49938,0.32011 0.38599,1.38186 -0.25425,2.38062 -0.64022,0.99874 -1.55765,1.54508 -2.05703,1.22497 -0.49938,-0.32012 -0.38598,-1.38188 0.25425,-2.38062 z m 3.51063,-5.02912 c 0.733,-0.93278 1.69858,-1.38869 2.16498,-1.02219 0.46639,0.36649 0.25177,1.41249 -0.48123,2.34529 -0.73299,0.93279 -1.69857,1.38869 -2.16497,1.0222 -0.46639,-0.3665 -0.25177,-1.4125 0.48122,-2.3453 z m 3.99775,-4.65045 c 0.81863,-0.858622 1.82328,-1.220354 2.2526,-0.811039 0.42931,0.409309 0.11592,1.430069 -0.70272,2.288709 -0.81862,0.85862 -1.82328,1.22036 -2.2526,0.81105 -0.42931,-0.40932 -0.11592,-1.43008 0.70272,-2.28872 z m 4.44385,-4.226218 c 0.8967,-0.776733 1.93126,-1.041093 2.31962,-0.592735 0.38836,0.448357 -0.0209,1.434607 -0.91759,2.21134 -0.89671,0.776715 -1.93126,1.041082 -2.31962,0.592717 -0.38837,-0.448348 0.0209,-1.434607 0.91759,-2.211322 z m 4.84569,-3.759099 c 0.96683,-0.687471 2.0219,-0.851758 2.36564,-0.368347 0.34375,0.483418 -0.15788,1.426049 -1.12471,2.113528 -0.96683,0.687479 -2.02191,0.851765 -2.36564,0.368356 -0.34375,-0.483429 0.15788,-1.426058 1.12471,-2.113537 z m 5.20011,-3.252774 c 1.02847,-0.591287 2.09446,-0.653325 2.3901,-0.139084 0.29565,0.514241 -0.29431,1.404238 -1.32279,1.995534 -1.02847,0.591296 -2.09445,0.653325 -2.3901,0.139067 -0.29564,-0.514224 0.29432,-1.404238 1.32279,-1.995526 z m 5.50389,-2.710598 c 1.08102,-0.488644 2.148,-0.446892 2.39232,0.09362 0.24431,0.540505 -0.42926,1.36903 -1.51028,1.857675 -1.08103,0.488644 -2.148,0.446884 -2.39232,-0.09362 -0.24433,-0.540515 0.42926,-1.369031 1.51028,-1.857675 z m 5.75229,-2.137248 c 1.12377,-0.38016 2.18149,-0.233871 2.37157,0.328007 0.19008,0.561888 -0.56158,1.32028 -1.68535,1.700448 -1.12376,0.380168 -2.18148,0.233871 -2.37156,-0.328008 -0.19008,-0.561879 0.56158,-1.320279 1.68534,-1.700447 z m 5.99455,-1.54992 c 1.16785,-0.208505 2.19197,0.09373 2.29623,0.677663 0.10424,0.583921 -0.75201,1.221868 -1.91987,1.430375 -1.16785,0.208506 -2.19196,-0.09373 -2.29622,-0.677663 -0.10426,-0.583928 0.75202,-1.221876 1.91986,-1.430375 z m 6.07054,-0.918232 c 1.1829,-0.08992 2.17141,0.313839 2.21637,0.905289 0.045,0.591459 -0.87115,1.14 -2.05406,1.229921 -1.18291,0.08992 -2.1714,-0.313839 -2.21636,-0.905288 -0.045,-0.591459 0.87114,-1.14 2.05405,-1.229922 z m 6.0784,-0.305306 c 1.18594,-0.02998 2.15276,0.423265 2.16774,1.016232 0.015,0.592975 -0.92769,1.094477 -2.11363,1.124451 -1.18594,0.02998 -2.15275,-0.423257 -2.16774,-1.016232 -0.015,-0.592966 0.92768,-1.094477 2.11363,-1.124451 z m -68.50411,77.73974 v 4.28293 h 137.06246 v -4.28293 z m 0,-38.548675 v 4.282945 h 137.06246 v -4.282945 z m 69.309,21.912815 q -0.81596,2.60296 -3.2209,10.53581 -2.40495,7.89153 -3.34974,10.57712 -0.9448,2.64428 -0.98775,2.72692 1.37425,0.16527 4.38043,0.16527 3.04913,0 6.78537,-0.78502 3.7792,-0.82635 6.74243,-2.47902 3.00619,-1.65268 4.68106,-4.46222 1.71781,-2.80955 1.71781,-6.81729 0,-4.00774 -4.85283,-6.65202 -4.85283,-2.64429 -11.89588,-2.80955 z m 12.71184,32.43377 q -12.583,0 -23.10463,-4.29696 -2.19021,2.10715 -5.45406,2.76823 -3.22091,0.70238 -8.63203,0.70238 -5.36818,0 -10.43574,-1.19819 -5.06756,-1.19818 -8.03079,-2.9335 -3.00618,-1.73531 -3.00618,-3.38798 0,-0.95029 0.85891,-1.52872 0.85891,-0.57844 1.97549,-0.57844 3.95098,0 5.84058,-1.19819 1.93254,-1.23951 3.6933,-4.54486 1.80371,-3.30535 3.47858,-7.60231 1.67487,-4.33827 3.09207,-8.09811 1.46014,-3.75983 3.26385,-7.60231 3.99392,-8.38733 10.00628,-11.15556 2.87734,-1.32214 7.51545,-2.024535 4.6381,-0.74371 7.25777,-0.74371 2.66262,0 3.43564,0.0827 0.81596,0.0413 1.63192,0.24791 1.63193,0.41316 1.63193,1.735315 0,0.90897 -0.38651,1.69399 -0.34356,0.7437 -1.93254,3.22272 -1.58898,2.47901 -4.20866,10.37054 10.47869,-0.61976 16.01864,-4.17301 5.53996,-3.59457 5.53996,-9.17235 0,-7.561005 -13.31307,-8.593915 -2.70557,-0.20659 -7.90196,-0.20659 -5.1964,0 -11.55232,1.19819 -6.35592,1.15688 -9.96333,2.56165 -3.56447,1.40477 -6.44182,2.602965 -2.87734,1.15687 -3.6933,1.15687 -2.23316,0 -2.23316,-1.40477 0,-1.446095 2.79145,-3.429305 2.79145,-1.98321 7.68723,-3.92511 4.93872,-1.94189 10.90813,-3.59457 13.48486,-3.71852 27.87157,-3.71852 14.38672,0 21.81627,4.33828 7.47251,4.29695 7.47251,11.403465 0,7.10651 -7.42956,11.81663 -7.38661,4.71013 -20.31318,5.20593 8.28847,0.0827 15.24562,3.84247 3.34974,1.77663 5.45407,4.66881 2.10432,2.89218 2.10432,6.69334 0,3.80115 -1.67486,7.14782 -1.63193,3.30535 -4.38044,5.45383 -2.70556,2.14848 -6.48476,3.55325 -6.91421,2.64429 -16.01864,2.64429 z M 317.93482,99.071775 q -0.32729,1.085215 -1.29192,4.392505 -0.96462,3.29007 -1.34358,4.40972 -0.37896,1.10243 -0.39619,1.13688 0.55122,0.0689 1.757,0.0689 1.22301,0 2.72163,-0.32729 1.51584,-0.34451 2.7044,-1.03353 1.20578,-0.68902 1.87757,-1.86035 0.68902,-1.17133 0.68902,-2.8422 0,-1.67087 -1.94648,-2.7733 -1.94648,-1.102445 -4.77145,-1.171345 z m 5.09874,13.522005 q -5.04707,0 -9.26731,-1.79145 -0.8785,0.8785 -2.18764,1.15411 -1.29191,0.29283 -3.46232,0.29283 -2.15318,0 -4.18579,-0.49954 -2.0326,-0.49953 -3.22116,-1.223 -1.20579,-0.72347 -1.20579,-1.41249 0,-0.39619 0.34451,-0.63735 0.34451,-0.24115 0.79238,-0.24115 1.58474,0 2.34266,-0.49954 0.77515,-0.51677 1.48139,-1.8948 0.72347,-1.37804 1.39527,-3.16949 0.67179,-1.80868 1.24023,-3.376205 0.58567,-1.56751 1.30914,-3.16948 1.60197,-3.49678 4.01353,-4.65088 1.15411,-0.55122 3.01446,-0.84405 1.86035,-0.31006 2.91111,-0.31006 1.06798,0 1.37804,0.0345 0.32728,0.0172 0.65456,0.10335 0.65457,0.17226 0.65457,0.72347 0,0.37896 -0.15503,0.70625 -0.1378,0.31006 -0.77514,1.34359 -0.63735,1.03352 -1.6881,4.32359 4.20302,-0.25838 6.4251,-1.73977 2.22209,-1.49862 2.22209,-3.82406 0,-3.15226 -5.3399,-3.5829 -1.0852,-0.0861 -3.16949,-0.0861 -2.08428,0 -4.63365,0.49954 -2.54937,0.48232 -3.99631,1.06798 -1.42972,0.58567 -2.58382,1.08521 -1.15411,0.48231 -1.48139,0.48231 -0.89573,0 -0.89573,-0.58566 0,-0.6029 1.11966,-1.42972 1.11965,-0.82682 3.08336,-1.63642 1.98093,-0.8096 4.37527,-1.49862 5.4088,-1.55029 11.17933,-1.55029 5.77054,0 8.75055,1.80868 2.99723,1.79145 2.99723,4.75423 0,2.96278 -2.98001,4.92648 -2.96278,1.96371 -8.14765,2.17041 3.32452,0.0345 6.11505,1.601975 1.34358,0.7407 2.18763,1.94648 0.84405,1.20579 0.84405,2.79053 0,1.58474 -0.67179,2.98001 -0.65457,1.37804 -1.757,2.27376 -1.08521,0.89573 -2.60105,1.48139 -2.7733,1.10243 -6.4251,1.10243 z m 24.25347,-8.3888 q 2.99723,-0.82683 4.73701,-2.53215 1.73977,-1.705325 1.73977,-4.116895 0,-0.63734 -0.41341,-1.0163 -0.41341,-0.37896 -1.25746,-0.37896 -0.82682,0 -1.73978,0.72347 -0.89572,0.72347 -1.51584,1.8948 -1.30913,2.428795 -1.55029,5.426035 z m 18.06953,2.79052 q 0.60289,0 0.60289,0.56844 0,0.55122 -0.82683,1.03353 -0.80959,0.46509 -2.01538,1.01631 -1.20578,0.53398 -3.32451,1.27468 -4.87481,1.70532 -11.00708,1.70532 -11.64443,0 -11.64443,-7.1658 0,-3.49677 2.20486,-6.201175 2.22209,-2.72162 5.94279,-4.15134 3.72071,-1.44694 8.1132,-1.44694 4.3925,0 6.42511,1.36081 2.04983,1.36082 2.04983,3.73793 0,2.446025 -1.9637,3.996315 -1.94648,1.5503 -5.18487,2.30822 -3.25562,0.75792 -7.45864,1.06798 0.27561,2.66995 3.82406,3.32451 0.91295,0.15503 1.92925,0.15503 4.03077,0 11.6272,-2.42879 0.46509,-0.15503 0.70625,-0.15503 z m 8.38881,-2.79052 q 2.99723,-0.82683 4.737,-2.53215 1.73978,-1.705325 1.73978,-4.116895 0,-0.63734 -0.41342,-1.0163 -0.41341,-0.37896 -1.25746,-0.37896 -0.82682,0 -1.73977,0.72347 -0.89572,0.72347 -1.51584,1.8948 -1.30914,2.428795 -1.55029,5.426035 z m 18.06952,2.79052 q 0.60289,0 0.60289,0.56844 0,0.55122 -0.82682,1.03353 -0.8096,0.46509 -2.01538,1.01631 -1.20578,0.53398 -3.32452,1.27468 -4.87481,1.70532 -11.00708,1.70532 -11.64442,0 -11.64442,-7.1658 0,-3.49677 2.20486,-6.201175 2.22209,-2.72162 5.94279,-4.15134 3.7207,-1.44694 8.1132,-1.44694 4.3925,0 6.4251,1.36081 2.04984,1.36082 2.04984,3.73793 0,2.446025 -1.96371,3.996315 -1.94648,1.5503 -5.18487,2.30822 -3.25561,0.75792 -7.45863,1.06798 0.27561,2.66995 3.82406,3.32451 0.91295,0.15503 1.92925,0.15503 4.03076,0 11.6272,-2.42879 0.46509,-0.15503 0.70624,-0.15503 z m -105.11848,28.62969 7.88927,0.36174 q 0.44786,0 0.67179,0.2756 0.22393,0.25838 0.22393,0.58567 0,1.25746 -1.05075,4.01354 -1.03353,2.73885 -2.08428,5.44325 -1.03353,2.68717 -1.03353,3.56567 0,0.86127 0.25838,1.10243 0.27561,0.24116 1.03353,0.24116 0.75792,0 2.75608,-0.72347 2.01538,-0.7407 2.72162,-1.11966 0.72347,-0.37896 1.10243,-0.37896 0.6718,0 0.6718,0.60289 0,1.27469 -5.16765,3.34175 -1.73977,0.70624 -4.20301,1.17133 -2.44602,0.48231 -4.97817,0.48231 -4.22024,0 -5.08151,-2.68717 -2.68718,2.68717 -7.2347,2.68717 -3.11782,0 -5.271,-1.49862 -2.34267,-1.63642 -2.34267,-5.15041 0,-3.70348 2.18764,-6.82129 2.39434,-3.46232 6.40788,-4.77146 2.22208,-0.72347 4.77146,-0.72347 3.91018,0 6.08059,1.92925 0.0172,-0.10335 0.0172,-0.32728 l -0.0172,-0.7407 q 0,-0.86127 1.67087,-0.86127 z m -8.95725,14.58998 q 3.23839,0 5.4088,-4.96094 0.99908,-2.27376 0.99908,-3.68625 0,-1.41249 -0.48231,-1.94648 -0.46509,-0.53399 -1.86036,-0.53399 -1.37803,0 -2.99723,1.29191 -1.60197,1.27469 -2.58382,3.22117 -0.98185,1.94648 -0.98185,3.51399 0,1.5503 0.68902,2.32544 0.68902,0.77515 1.80867,0.77515 z m 32.315,0 q 3.23839,0 5.4088,-4.96094 1.24023,-2.37711 1.24023,-4.20301 0,-0.99908 -0.48231,-1.53307 -0.46509,-0.53399 -1.87758,-0.53399 -1.39526,0 -3.06613,1.30913 -1.67088,1.30914 -2.7044,3.29007 -1.01631,1.96371 -1.01631,3.53122 0,1.5503 0.68902,2.32544 0.68902,0.77515 1.80868,0.77515 z m 21.34236,-1.22301 q 0.77515,0 0.77515,0.70625 0,0.49953 -0.72347,1.03352 -1.92925,1.41249 -5.77053,2.6355 -3.82406,1.22301 -6.68349,1.22301 -2.85943,0 -4.22024,-0.60289 -1.34359,-0.58567 -1.86035,-2.08428 -0.99908,1.0163 -2.87666,1.86035 -1.87758,0.82682 -3.97908,0.82682 -2.08429,0 -3.41065,-0.37896 -1.32636,-0.36173 -2.41157,-1.11966 -1.0852,-0.75792 -1.72254,-2.06705 -0.62012,-1.32636 -0.62012,-3.08336 0,-1.757 0.53399,-3.49678 0.53399,-1.73977 1.63642,-3.32451 1.11966,-1.60197 2.66995,-2.82498 1.55029,-1.22301 3.75515,-1.94648 2.22209,-0.72347 4.77146,-0.72347 4.18579,0 6.95909,2.08428 0.96463,-6.13227 0.96463,-8.00984 l -0.0172,-0.49954 q 0,-0.86128 1.67088,-0.86128 l 7.71701,0.36174 q 0.41341,0 0.65457,0.25838 0.24116,0.24116 0.24116,0.55122 0,2.68717 -2.84221,11.0243 -2.8422,8.31991 -2.8422,9.1295 0,0.8096 0.22393,1.15411 0.24116,0.34451 0.98185,0.34451 0.7407,0 2.54937,-0.62012 1.80868,-0.62011 2.72163,-1.0852 0.91295,-0.46509 1.1541,-0.46509 z m 4.01354,-12.81575 8.16488,-0.18948 q 0.44786,0 0.67179,0.2756 0.22393,0.25838 0.22393,0.65457 0,0.37896 -0.18948,1.24024 4.5992,-2.53215 8.00985,-2.53215 1.48139,0 2.73885,0.7407 1.27468,0.74069 1.65364,2.18763 5.61551,-2.92833 9.30176,-2.92833 1.6192,0 2.85943,0.91295 1.32636,0.99908 1.32636,2.82498 0,1.80867 -0.63734,3.82405 -0.62012,1.99816 -1.25746,3.73793 -0.62012,1.73978 -0.62012,2.46325 0,0.70624 0.36174,1.06798 0.36173,0.36173 0.96463,0.36173 2.22208,0 5.51215,-1.55029 0.62012,-0.27561 0.9474,-0.27561 0.77515,0 0.77515,0.62012 0,0.55121 -0.6718,1.05075 -0.65457,0.48232 -1.91203,1.06798 -1.25746,0.58567 -3.11781,1.25746 -1.84312,0.6718 -4.34082,1.13688 -2.49769,0.46509 -4.4614,0.46509 -1.94648,0 -2.9111,-0.65457 -0.96463,-0.65457 -0.96463,-1.68809 0,-1.03353 0.65457,-3.10059 0.67179,-2.06706 1.34359,-4.08244 0.67179,-2.0326 0.67179,-2.94555 0,-0.93018 -0.44786,-1.32637 -0.44786,-0.41341 -1.34359,-0.41341 -0.8785,0 -1.94648,0.27561 -0.27561,2.94556 -2.29099,8.97447 -0.84405,2.53215 -0.9474,3.16949 -0.10335,0.63734 -0.1378,0.7407 -0.0344,0.0861 -0.12058,0.24115 -0.15503,0.27561 -0.65457,0.27561 -2.48047,0 -4.90926,0.0861 -2.41157,0.10335 -3.11781,0.10335 -0.68902,0 -0.68902,-0.8096 0,-0.80959 0.53399,-2.41156 0.53399,-1.60197 1.18856,-3.18672 1.70532,-4.20301 1.70532,-6.27007 0,-1.53307 -1.99816,-1.53307 -0.84404,0 -1.60197,0.27561 -0.67179,2.29099 -2.32543,7.25193 -1.63643,4.96093 -1.84313,5.58105 -0.27561,0.91295 -0.98185,0.91295 l -8.8539,0.18948 q -0.18948,0 -0.43064,-0.24116 -0.22393,-0.22393 -0.22393,-0.53398 0,-0.32729 0.72347,-2.25654 0.7407,-1.94648 1.6192,-4.16857 0.8785,-2.23931 1.60197,-4.90926 0.74069,-2.68717 0.74069,-4.44417 l -0.0172,-0.65457 q 0,-0.86127 1.67087,-0.86127 z m 50.4362,14.81391 q 1.17133,0 3.16948,-0.55122 2.01538,-0.56844 2.92834,-0.99908 0.91295,-0.44786 1.27468,-0.44786 0.72347,0 0.72347,0.72347 0,0.32728 -0.53399,0.7407 -1.757,1.30913 -6.32175,2.72162 -4.56475,1.41249 -8.14765,1.41249 -2.22209,0 -3.7207,-0.70624 -1.49862,-0.70625 -1.49862,-2.15319 0,-0.8785 1.49862,-4.30637 2.82497,-6.494 2.82497,-9.78407 l -0.0172,-0.65457 q 0,-0.86127 1.67087,-0.86127 l 8.50939,-0.18948 q 0.44786,0 0.67179,0.27561 0.22393,0.25838 0.22393,0.58566 0,1.18856 -1.0852,3.92741 -1.08521,2.72163 -2.17041,5.35713 -1.08521,2.63549 -1.08521,3.77237 0,1.13689 1.08521,1.13689 z m 4.84036,-21.37682 q 0,1.84312 -2.04984,3.22116 -2.0326,1.36082 -4.30637,1.36082 -2.25653,0 -3.51399,-0.91295 -1.25746,-0.93018 -1.25746,-2.25654 0,-1.32636 0.96462,-2.41157 0.96463,-1.0852 2.4977,-1.70532 1.55029,-0.62012 3.35897,-0.62012 1.80867,0 3.04891,0.96463 1.25746,0.9474 1.25746,2.35989 z m 35.01939,19.37866 q 0.63734,0 0.63734,0.60289 0,0.58567 -0.63734,1.03353 -0.62012,0.44786 -1.84313,1.03353 -1.22301,0.56844 -3.04891,1.25746 -1.80867,0.68902 -4.20302,1.17133 -2.37711,0.49954 -4.54752,0.49954 -5.11597,0 -5.11597,-2.34266 0,-1.51585 1.72255,-5.4088 1.73977,-3.91019 1.73977,-5.271 0,-1.53307 -2.39434,-1.53307 -1.0852,0 -2.46324,0.27561 -0.65457,2.30821 -2.34267,7.33805 -1.67087,5.02984 -1.8948,5.71886 -0.20671,0.68902 -0.91295,0.68902 l -8.87112,0.18948 q -0.18948,0 -0.43064,-0.24116 -0.22393,-0.22393 -0.22393,-0.53398 0,-0.32729 0.72347,-2.25654 0.7407,-1.94648 1.6192,-4.16857 0.89572,-2.23931 1.61919,-4.90926 0.7407,-2.68717 0.7407,-4.44417 l -0.0172,-0.65457 q 0,-0.86127 1.67087,-0.86127 l 8.16488,-0.18948 q 0.44786,0 0.67179,0.2756 0.22393,0.25838 0.22393,0.65457 0,0.37896 -0.18948,1.24024 6.06337,-2.53215 9.95633,-2.53215 1.65365,0 3.01446,0.91295 1.51584,1.0163 1.51584,3.08336 0,2.11873 -1.60197,5.5466 -1.60197,3.42787 -1.60197,4.23747 0,1.60197 1.27469,1.60197 0.80959,0 2.75607,-0.60289 1.96371,-0.62012 2.89388,-1.0163 0.9474,-0.39619 1.39527,-0.39619 z"
         inkscape:connector-curvature="0" />
    </g>
  </g>
</svg>
